<svg xmlns="http://www.w3.org/2000/svg" xmlns:xlink="http://www.w3.org/1999/xlink" version="1.1" width="256" height="256" viewBox="0 0 256 256" xml:space="preserve">

<defs>
</defs>
<g style="stroke: none; stroke-width: 0; stroke-dasharray: none; stroke-linecap: butt; stroke-linejoin: miter; stroke-miterlimit: 10; fill: none; fill-rule: nonzero; opacity: 1;" transform="translate(1.4065934065934016 1.4065934065934016) scale(2.81 2.81)" >
	<path d="M 79.212 78.139 h -2.831 v -5.861 c 0 -1.104 -0.896 -2 -2 -2 h -3.559 V 11.861 h 3.559 c 1.104 0 2 -0.896 2 -2 V 2 c 0 -1.104 -0.896 -2 -2 -2 H 15.619 c -1.104 0 -2 0.896 -2 2 v 7.861 c 0 1.104 0.896 2 2 2 h 3.559 v 58.416 h -3.559 c -1.104 0 -2 0.896 -2 2 v 5.861 h -2.831 c -1.104 0 -2 0.896 -2 2 V 88 c 0 1.104 0.896 2 2 2 h 68.424 c 1.104 0 2 -0.896 2 -2 v -7.861 C 81.212 79.034 80.316 78.139 79.212 78.139 z M 17.619 4 h 54.762 v 3.861 h -3.559 H 21.177 h -3.559 V 4 z M 23.177 11.861 h 43.645 v 58.416 H 54.385 v -8.336 c 0 -5.175 -4.21 -9.385 -9.385 -9.385 c -5.175 0 -9.385 4.21 -9.385 9.385 v 8.336 H 23.177 V 11.861 z M 50.385 70.277 h -10.77 v -8.336 c 0 -2.969 2.416 -5.385 5.385 -5.385 c 2.969 0 5.385 2.416 5.385 5.385 V 70.277 z M 17.619 74.277 h 3.559 h 16.438 h 14.77 h 16.438 h 3.559 v 3.861 H 17.619 V 74.277 z M 77.212 86 H 12.788 v -3.861 h 2.831 h 58.762 h 2.831 V 86 z" style="stroke: none; stroke-width: 1; stroke-dasharray: none; stroke-linecap: butt; stroke-linejoin: miter; stroke-miterlimit: 10; fill: rgb(0,0,0); fill-rule: nonzero; opacity: 1;" transform=" matrix(1 0 0 1 0 0) " stroke-linecap="round" />
	<path d="M 41.112 30.351 H 28.486 c -1.104 0 -2 -0.896 -2 -2 v -6.313 c 0 -4.584 3.729 -8.313 8.313 -8.313 s 8.313 3.729 8.313 8.313 v 6.313 C 43.112 29.456 42.217 30.351 41.112 30.351 z M 30.486 26.351 h 8.626 v -4.313 c 0 -2.378 -1.935 -4.313 -4.313 -4.313 s -4.313 1.935 -4.313 4.313 V 26.351 z" style="stroke: none; stroke-width: 1; stroke-dasharray: none; stroke-linecap: butt; stroke-linejoin: miter; stroke-miterlimit: 10; fill: rgb(0,0,0); fill-rule: nonzero; opacity: 1;" transform=" matrix(1 0 0 1 0 0) " stroke-linecap="round" />
	<path d="M 61.514 30.351 H 48.888 c -1.104 0 -2 -0.896 -2 -2 v -6.313 c 0 -4.584 3.729 -8.313 8.313 -8.313 s 8.313 3.729 8.313 8.313 v 6.313 C 63.514 29.456 62.618 30.351 61.514 30.351 z M 50.888 26.351 h 8.626 v -4.313 c 0 -2.378 -1.935 -4.313 -4.313 -4.313 c -2.378 0 -4.313 1.935 -4.313 4.313 V 26.351 z" style="stroke: none; stroke-width: 1; stroke-dasharray: none; stroke-linecap: butt; stroke-linejoin: miter; stroke-miterlimit: 10; fill: rgb(0,0,0); fill-rule: nonzero; opacity: 1;" transform=" matrix(1 0 0 1 0 0) " stroke-linecap="round" />
	<path d="M 41.112 49.675 H 28.486 c -1.104 0 -2 -0.896 -2 -2 v -6.313 c 0 -4.584 3.729 -8.313 8.313 -8.313 s 8.313 3.729 8.313 8.313 v 6.313 C 43.112 48.779 42.217 49.675 41.112 49.675 z M 30.486 45.675 h 8.626 v -4.313 c 0 -2.378 -1.935 -4.313 -4.313 -4.313 s -4.313 1.935 -4.313 4.313 V 45.675 z" style="stroke: none; stroke-width: 1; stroke-dasharray: none; stroke-linecap: butt; stroke-linejoin: miter; stroke-miterlimit: 10; fill: rgb(0,0,0); fill-rule: nonzero; opacity: 1;" transform=" matrix(1 0 0 1 0 0) " stroke-linecap="round" />
	<path d="M 61.514 49.675 H 48.888 c -1.104 0 -2 -0.896 -2 -2 v -6.313 c 0 -4.584 3.729 -8.313 8.313 -8.313 s 8.313 3.729 8.313 8.313 v 6.313 C 63.514 48.779 62.618 49.675 61.514 49.675 z M 50.888 45.675 h 8.626 v -4.313 c 0 -2.378 -1.935 -4.313 -4.313 -4.313 c -2.378 0 -4.313 1.935 -4.313 4.313 V 45.675 z" style="stroke: none; stroke-width: 1; stroke-dasharray: none; stroke-linecap: butt; stroke-linejoin: miter; stroke-miterlimit: 10; fill: rgb(0,0,0); fill-rule: nonzero; opacity: 1;" transform=" matrix(1 0 0 1 0 0) " stroke-linecap="round" />
</g>
</svg>