<svg xmlns="http://www.w3.org/2000/svg" xmlns:xlink="http://www.w3.org/1999/xlink" version="1.1" width="256" height="256" viewBox="0 0 256 256" xml:space="preserve">

<defs>
</defs>
<g style="stroke: none; stroke-width: 0; stroke-dasharray: none; stroke-linecap: butt; stroke-linejoin: miter; stroke-miterlimit: 10; fill: none; fill-rule: nonzero; opacity: 1;" transform="translate(1.4065934065934016 1.4065934065934016) scale(2.81 2.81)" >
	<path d="M 85.027 53.425 L 85.027 53.425 l 1.939 29.069 C 87.149 86.584 83.883 90 79.789 90 c -4.094 0 -7.36 -3.416 -7.177 -7.505 l 1.881 -28.193 c 0.032 -0.475 -0.345 -0.877 -0.82 -0.877 h -1.856 c -2.617 0 -4.558 -2.429 -3.981 -4.982 L 78.179 2.702 C 78.537 1.122 79.941 0 81.561 0 h 0 c 1.915 0 3.467 1.552 3.467 3.467 V 53.425" style="stroke: none; stroke-width: 1; stroke-dasharray: none; stroke-linecap: butt; stroke-linejoin: miter; stroke-miterlimit: 10; fill: rgb(0,0,0); fill-rule: nonzero; opacity: 1;" transform=" matrix(1 0 0 1 0 0) " stroke-linecap="round" />
	<path d="M 62.233 21.325 L 59.241 0 h -4.18 v 22.237 c 0 0.829 -0.671 1.5 -1.5 1.5 s -1.5 -0.671 -1.5 -1.5 V 0 h -5.396 v 22.237 c 0 0.829 -0.671 1.5 -1.5 1.5 s -1.5 -0.671 -1.5 -1.5 V 0 H 38.87 l -2.992 21.325 c -0.15 3.223 1.027 6.366 3.256 8.699 l 4.862 5.087 l -2.118 47.384 C 41.696 86.584 44.962 90 49.056 90 s 7.36 -3.416 7.177 -7.505 l -2.118 -47.384 l 4.862 -5.087 C 61.207 27.692 62.383 24.548 62.233 21.325 z" style="stroke: none; stroke-width: 1; stroke-dasharray: none; stroke-linecap: butt; stroke-linejoin: miter; stroke-miterlimit: 10; fill: rgb(0,0,0); fill-rule: nonzero; opacity: 1;" transform=" matrix(1 0 0 1 0 0) " stroke-linecap="round" />
	<path d="M 23.838 36.418 c 4.338 -4.353 5.999 -10.704 4.347 -16.624 L 24.472 6.493 C 23.401 2.654 19.904 0 15.92 0 S 8.438 2.654 7.367 6.493 L 3.654 19.794 c -1.652 5.92 0.008 12.27 4.347 16.624 l 2.68 2.69 l 0 0 L 8.742 82.495 C 8.56 86.584 11.826 90 15.92 90 s 7.36 -3.416 7.177 -7.505 l -1.939 -43.388 l 0 0 L 23.838 36.418 z" style="stroke: none; stroke-width: 1; stroke-dasharray: none; stroke-linecap: butt; stroke-linejoin: miter; stroke-miterlimit: 10; fill: rgb(0,0,0); fill-rule: nonzero; opacity: 1;" transform=" matrix(1 0 0 1 0 0) " stroke-linecap="round" />
</g>
</svg>