<svg xmlns="http://www.w3.org/2000/svg" xmlns:xlink="http://www.w3.org/1999/xlink" version="1.1" width="256" height="256" viewBox="0 0 256 256" xml:space="preserve">

<defs>
</defs>
<g style="stroke: none; stroke-width: 0; stroke-dasharray: none; stroke-linecap: butt; stroke-linejoin: miter; stroke-miterlimit: 10; fill: none; fill-rule: nonzero; opacity: 1;" transform="translate(1.4065934065934016 1.4065934065934016) scale(2.81 2.81)" >
	<path d="M 88 86 h -6.043 V 32.737 C 81.957 14.686 67.271 0 49.221 0 c -1.104 0 -2 0.896 -2 2 v 84 h -4.239 V 52.05 c 0 -18.162 -14.776 -32.938 -32.939 -32.938 c -1.104 0 -2 0.896 -2 2 V 86 H 2 c -1.104 0 -2 0.896 -2 2 s 0.896 2 2 2 h 8.043 h 30.939 h 8.239 h 30.736 H 88 c 1.104 0 2 -0.896 2 -2 S 89.104 86 88 86 z M 12.043 86 v -5.556 h 15.869 c 1.104 0 2 -0.896 2 -2 s -0.896 -2 -2 -2 H 12.043 v -5.556 h 15.869 c 1.104 0 2 -0.896 2 -2 s -0.896 -2 -2 -2 H 12.043 v -5.556 h 15.869 c 1.104 0 2 -0.896 2 -2 s -0.896 -2 -2 -2 H 12.043 v -5.556 h 15.869 c 1.104 0 2 -0.896 2 -2 s -0.896 -2 -2 -2 H 12.043 v -5.555 h 12.046 c 1.104 0 2 -0.896 2 -2 s -0.896 -2 -2 -2 H 12.043 v -5.556 h 8.224 c 1.104 0 2 -0.896 2 -2 s -0.896 -2 -2 -2 h -8.224 V 23.18 c 15.028 1.03 26.939 13.585 26.939 28.87 V 86 H 12.043 z M 51.221 86 v -5.556 h 15.868 c 1.104 0 2 -0.896 2 -2 s -0.896 -2 -2 -2 H 51.221 v -5.556 h 15.868 c 1.104 0 2 -0.896 2 -2 s -0.896 -2 -2 -2 H 51.221 v -5.556 h 15.868 c 1.104 0 2 -0.896 2 -2 s -0.896 -2 -2 -2 H 51.221 v -5.556 h 15.868 c 1.104 0 2 -0.896 2 -2 s -0.896 -2 -2 -2 H 51.221 v -5.555 h 15.868 c 1.104 0 2 -0.896 2 -2 s -0.896 -2 -2 -2 H 51.221 v -5.556 h 15.868 c 1.104 0 2 -0.896 2 -2 s -0.896 -2 -2 -2 H 51.221 v -5.555 h 12.046 c 1.104 0 2 -0.896 2 -2 s -0.896 -2 -2 -2 H 51.221 v -5.556 h 8.224 c 1.104 0 2 -0.896 2 -2 s -0.896 -2 -2 -2 h -8.224 V 4.069 c 14.916 1.03 26.736 13.495 26.736 28.668 V 86 H 51.221 z" style="stroke: none; stroke-width: 1; stroke-dasharray: none; stroke-linecap: butt; stroke-linejoin: miter; stroke-miterlimit: 10; fill: rgb(0,0,0); fill-rule: nonzero; opacity: 1;" transform=" matrix(1 0 0 1 0 0) " stroke-linecap="round" />
</g>
</svg>